<svg xmlns="http://www.w3.org/2000/svg" width="24" height="24" fill="#ffffff" viewBox="0 0 24 24">
  <path d="M12 2.2c3.2 0 3.6 0 4.9.1 1.2.1 1.9.3 2.3.5.6.3 1.1.7 1.5 1.2s.9.9 1.2 1.5c.2.4.4 1.1.5 2.3.1 1.3.1 1.7.1 4.9s0 3.6-.1 4.9c-.1 1.2-.3 1.9-.5 2.3-.3.6-.7 1.1-1.2 1.5s-.9.9-1.5 1.2c-.4.2-1.1.4-2.3.5-1.3.1-1.7.1-4.9.1s-3.6 0-4.9-.1c-1.2-.1-1.9-.3-2.3-.5-.6-.3-1.1-.7-1.5-1.2s-.9-.9-1.2-1.5c-.2-.4-.4-1.1-.5-2.3C2.2 15.6 2.2 15.2 2.2 12s0-3.6.1-4.9c.1-1.2.3-1.9.5-2.3.3-.6.7-1.1 1.2-1.5s.9-.9 1.5-1.2c.4-.2 1.1-.4 2.3-.5C8.4 2.2 8.8 2.2 12 2.2M12 0C8.7 0 8.3 0 7 .1 5.6.2 4.4.5 3.4 1 2.3 1.5 1.5 2.3 1 3.4.5 4.4.2 5.6.1 7 0 8.3 0 8.7 0 12s0 3.7.1 5c.1 1.4.4 2.6.9 3.6.5 1.1 1.3 1.9 2.4 2.4 1 .5 2.2.8 3.6.9 1.3.1 1.7.1 5 .1s3.7 0 5-.1c1.4-.1 2.6-.4 3.6-.9 1.1-.5 1.9-1.3 2.4-2.4.5-1 .8-2.2.9-3.6.1-1.3.1-1.7.1-5s0-3.7-.1-5c-.1-1.4-.4-2.6-.9-3.6C22.5 1.3 21.7.5 20.6 0c-1-.5-2.2-.8-3.6-.9C15.7 0 15.3 0 12 0zM12 5.8A6.2 6.2 0 0 0 5.8 12 6.2 6.2 0 0 0 12 18.2 6.2 6.2 0 0 0 18.2 12 6.2 6.2 0 0 0 12 5.8zm0 10.2A4 4 0 1 1 16 12a4 4 0 0 1-4 4.1zm6.4-11.8a1.4 1.4 0 1 1-2.8 0 1.4 1.4 0 0 1 2.8 0z"></path>
</svg>
